HIERARCHY
ROOT hip
{
	OFFSET 0.000000 0.000000 0.000000 
	CHANNELS 6 Xposition Yposition Zposition Xrotation Zrotation Yrotation
	JOINT abdomen
	{
		OFFSET 0.000000 3.402643 0.000000 
		CHANNELS 3 Xrotation Zrotation Yrotation
		JOINT chest
		{
			OFFSET 0.000000 8.438565 -0.680529 
			CHANNELS 3 Xrotation Zrotation Yrotation
			JOINT neck
			{
				OFFSET 0.000000 10.207942 -0.272212 
				CHANNELS 3 Xrotation Zrotation Yrotation
				JOINT head
				{
					OFFSET 0.000000 3.130431 0.000000 
					CHANNELS 3 Xrotation Zrotation Yrotation
					End Site
					{
						OFFSET 0.000000 3.130435 0.000000 
					}
				}
			}
			JOINT lCollar
			{
				OFFSET 3.470700 6.669187 -0.816635 
				CHANNELS 3 Yrotation Zrotation Xrotation
				JOINT lShldr
				{
					OFFSET 3.198488 0.000000 0.000000 
					CHANNELS 3 Zrotation Yrotation Xrotation
					JOINT lForeArm
					{
						OFFSET 10.139888 0.000000 0.000000 
						CHANNELS 3 Yrotation Zrotation Xrotation
						JOINT lHand
						{
							OFFSET 8.370511 0.000000 0.000000 
							CHANNELS 3 Zrotation Yrotation Xrotation
							End Site
							{
								OFFSET 4.083176 0.000000 0.000000 
							}
						}
					}
				}
			}
			JOINT rCollar
			{
				OFFSET -3.470700 6.669187 -0.816635 
				CHANNELS 3 Yrotation Zrotation Xrotation
				JOINT rShldr
				{
					OFFSET -3.198488 0.000000 0.000000 
					CHANNELS 3 Zrotation Yrotation Xrotation
					JOINT rForeArm
					{
						OFFSET -10.139888 0.000000 0.000000 
						CHANNELS 3 Yrotation Zrotation Xrotation
						JOINT rHand
						{
							OFFSET -8.370511 0.000000 0.000000 
							CHANNELS 3 Zrotation Yrotation Xrotation
							End Site
							{
								OFFSET -4.083176 0.000000 0.000000 
							}
						}
					}
				}
			}
		}
	}
	JOINT lThigh
	{
		OFFSET 5.308129 -1.633274 1.361059 
		CHANNELS 3 Xrotation Zrotation Yrotation
		JOINT lShin
		{
			OFFSET -2.041588 -20.007561 0.000000 
			CHANNELS 3 Xrotation Zrotation Yrotation
			JOINT lFoot
			{
				OFFSET 0.000000 -19.190928 -1.224953 
				CHANNELS 3 Xrotation Yrotation Zrotation
				End Site
				{
					OFFSET 0.000000 -2.449906 4.627600 
				}
			}
		}
	}
	JOINT rThigh
	{
		OFFSET -5.308129 -1.633274 1.361059 
		CHANNELS 3 Xrotation Zrotation Yrotation
		JOINT rShin
		{
			OFFSET 2.041588 -20.007561 0.000000 
			CHANNELS 3 Xrotation Zrotation Yrotation
			JOINT rFoot
			{
				OFFSET 0.000000 -19.190928 -1.224953 
				CHANNELS 3 Xrotation Yrotation Zrotation
				End Site
				{
					OFFSET 0.000000 -2.449906 4.627600 
				}
			}
		}
	}
}
MOTION
Frames: 11
Frame Time: 0.011111
-5.483574 37.840534 -1.543655 2.465523 18.267296 -88.837555 39.012878 4.258584 3.313899 -46.980556 4.757215 -0.849602 -23.179701 -2.319539 3.062234 35.804256 -23.178289 -4.466693 -5.130234 -1.441212 0.239105 -45.411888 -32.416916 -23.189631 -49.828186 7.657439 8.083862 8.524705 12.647240 -25.100965 -0.248815 -3.576873 1.747659 30.691933 24.228416 37.666649 53.500473 -8.426090 9.593482 -8.534408 -12.637552 98.870949 7.043441 -4.810156 -4.559336 67.033043 -1.915944 -8.715308 -5.557873 -22.367990 -6.885022 -83.985329 15.134161 -4.825853 87.366051 -0.838435 9.667190 -26.773352 9.065536 6.730324 
-5.567286 37.454014 -1.493360 2.308208 18.087393 -88.544243 39.501438 4.102274 3.090405 -47.134613 4.990387 -0.929938 -23.218353 -2.360996 3.135960 36.033634 -23.368267 -4.482023 -5.130234 -1.441212 0.239105 -44.040966 -30.839018 -26.532778 -50.016407 7.701528 8.152065 8.524705 12.647240 -25.247448 -0.248815 -3.576873 1.747659 29.260681 21.730473 34.677025 52.112072 -8.163003 9.027566 -8.534408 -12.637552 97.376808 7.352777 -5.077697 -4.657545 67.998177 -1.789228 -8.783942 -6.239553 -22.511036 -7.153863 -84.799049 14.862309 -5.069577 88.803543 -1.053780 9.697319 -27.866312 8.825964 6.658953 
-5.657886 37.090584 -1.444442 2.070443 17.949335 -88.299400 39.792423 3.820039 2.919905 -47.287449 5.175284 -0.972546 -23.118402 -2.686406 3.203465 36.243069 -23.368855 -4.598149 -5.130234 -1.441212 0.239105 -42.618443 -29.476221 -29.777992 -50.047417 7.708373 8.171761 8.524705 12.647240 -25.725964 -0.248815 -3.576873 1.747659 28.016361 19.119993 31.183714 50.875671 -7.906430 8.516929 -8.534408 -12.637552 95.882675 7.608634 -5.395179 -4.709169 68.933876 -1.680252 -8.850393 -7.154763 -22.665754 -7.531695 -85.624458 14.560553 -5.243133 90.242256 -1.240089 9.718513 -28.574793 8.608312 6.577446 
-5.758132 36.756428 -1.389324 1.868041 17.792356 -88.071106 39.990009 3.585703 2.806301 -47.414417 5.161811 -0.958799 -23.092846 -2.814993 3.202808 36.719845 -23.608982 -4.919394 -5.130234 -1.441212 0.239105 -41.070564 -27.755013 -31.255943 -50.413143 7.790540 8.311472 8.524705 12.647240 -24.739635 -0.248815 -3.576873 1.747659 27.042397 16.555424 27.261528 49.841061 -7.673846 8.099223 -8.534408 -12.637552 94.593613 7.816234 -5.621292 -4.576828 69.752602 -1.573789 -8.898228 -7.207727 -22.884340 -7.605978 -86.264259 14.276137 -5.396995 91.513573 -1.435737 9.762457 -29.351593 7.969987 6.256559 
-5.888006 36.461548 -1.332827 1.764577 17.605125 -87.846771 40.121830 3.456044 2.695413 -47.510902 5.111097 -0.959276 -23.101301 -2.751551 3.176593 37.365082 -23.960413 -5.264150 -5.130234 -1.441212 0.239105 -39.460289 -26.063091 -32.354923 -50.705677 7.854857 8.431593 8.524705 12.647240 -23.714247 -0.248815 -3.576873 1.747659 25.965185 14.134796 23.731752 49.048573 -7.483430 7.778763 -8.534408 -12.637552 93.851425 8.102216 -5.642620 -4.389126 70.258926 -1.505589 -8.937776 -6.765959 -23.140326 -7.491658 -86.624863 14.149599 -5.618217 92.572929 -1.601279 9.751727 -30.054117 7.574156 6.011304 
-6.017878 36.195942 -1.292178 1.782120 17.328196 -87.635391 40.301006 3.404222 2.404892 -47.656082 5.342110 -1.071752 -23.008821 -2.637615 3.227139 37.877934 -24.430813 -5.458910 -5.130234 -1.441212 0.239105 -37.955029 -24.774546 -34.902489 -50.549549 7.825483 8.379515 8.524705 12.647240 -24.622452 -0.248815 -3.576873 1.747659 24.566908 11.989367 20.923231 48.216488 -7.274657 7.445072 -8.534408 -12.637552 93.187355 8.423751 -5.417777 -4.242006 70.434402 -1.486041 -8.947040 -6.020167 -23.576450 -7.316431 -86.704567 14.159505 -5.947658 93.543541 -1.748352 9.780702 -30.578115 7.822078 6.188341 
-6.126736 35.965134 -1.262896 1.766450 17.013683 -87.483231 40.524467 3.321231 1.942112 -47.755535 5.648485 -1.232368 -21.707233 -4.058762 3.498797 35.649960 -22.772671 -4.371819 -5.130234 -1.441212 0.239105 -36.530266 -23.318922 -36.625473 -50.528175 7.816985 8.361292 8.524705 12.647240 -25.823620 -0.248815 -3.576873 1.747659 23.265556 10.217639 17.994392 47.127720 -6.990396 7.024396 -8.534408 -12.637552 91.341660 8.783493 -5.153376 -4.132059 70.444443 -1.495165 -8.944329 -4.952014 -23.972679 -6.988636 -86.684784 14.188993 -6.389583 94.418533 -1.874904 9.773438 -31.302731 7.800349 6.179401 
-6.232150 35.786003 -1.227069 1.535980 16.724190 -87.379173 40.696404 2.987036 1.442995 -47.710140 5.741227 -1.315284 -22.674450 -2.728213 3.417906 38.143494 -24.769423 -5.351258 -5.130234 -1.441212 0.239105 -34.887596 -22.019663 -37.398907 -50.434509 7.799095 8.329661 8.524705 12.647240 -27.903700 -0.248815 -3.576873 1.747659 22.146645 8.548244 15.463383 45.991287 -6.677582 6.588550 -8.534408 -12.637552 89.261574 9.109850 -5.038481 -3.928859 70.473167 -1.476149 -8.952790 -3.830123 -24.585384 -6.661522 -86.696335 14.120873 -6.632269 95.273003 -2.002650 9.790741 -31.962385 7.090295 5.753396 
-6.350309 35.642693 -1.192621 1.225124 16.387808 -87.248795 40.890148 2.501287 0.982498 -47.636280 5.594244 -1.313143 -22.957979 -2.291717 3.320570 39.178432 -25.291904 -5.836177 -5.130234 -1.441212 0.239105 -32.827671 -21.336304 -39.258358 -49.880928 7.672000 8.102035 8.524705 12.647240 -32.005264 -0.248815 -3.576873 1.747659 21.189962 6.628992 13.743289 44.992855 -6.390168 6.207751 -8.534408 -12.637552 87.523293 9.518198 -5.008292 -3.835678 70.463745 -1.476090 -8.942458 -2.670748 -25.199690 -6.305097 -86.577477 14.081422 -6.699656 95.973267 -2.090310 9.792148 -32.229244 6.555886 5.402300 
-6.477770 35.529015 -1.176775 0.997444 16.079693 -87.149925 41.020298 2.005254 0.605249 -47.578785 5.350063 -1.266602 -22.776375 -2.808686 3.343739 39.099930 -24.384264 -5.657209 -5.130234 -1.441212 0.239105 -30.616941 -20.905926 -41.838650 -49.359932 7.551865 7.896295 8.524705 12.647240 -35.979870 -0.248815 -3.576873 1.747659 20.293831 4.613620 12.540223 44.181488 -6.144166 5.906885 -8.534408 -12.637552 85.677589 9.996073 -4.939813 -3.843008 70.239471 -1.495510 -8.929564 -1.540118 -25.485027 -5.873075 -86.471207 14.198669 -6.805225 96.556496 -2.168035 9.797858 -32.462128 5.982943 5.026705 
-6.575949 35.463215 -1.179185 0.778506 15.947423 -87.033691 41.062317 1.511607 0.071428 -47.518932 5.315694 -1.298871 -22.307911 -2.802706 3.270790 38.580498 -24.367016 -5.650317 -5.130234 -1.441212 0.239105 -28.647242 -20.202839 -43.614262 -49.380257 7.554569 7.906828 8.524705 12.647240 -37.952526 -0.248815 -3.576873 1.747659 19.221756 2.974856 11.471578 43.321655 -5.878848 5.594817 -8.534408 -12.637552 83.617050 10.222640 -4.891856 -4.000043 70.073631 -1.534645 -8.934087 -0.663879 -25.702663 -5.525735 -86.599480 14.267257 -6.912457 97.111488 -2.236296 9.782856 -32.721325 5.484700 4.670398 
